<svg width="33" height="32" viewBox="0 0 33 32" fill="none" xmlns="http://www.w3.org/2000/svg">
<path d="M11.473 30.5756H8.12166C6.344 30.5756 4.63915 29.8663 3.38215 28.6036C2.12516 27.341 1.41899 25.6285 1.41899 23.8428V13.2521C1.41896 12.0944 1.71611 10.9563 2.28173 9.9476C2.84736 8.93893 3.66235 8.0938 4.648 7.49383L13.0263 2.39372C14.0738 1.75611 15.2752 1.419 16.5 1.419C17.7248 1.419 18.9262 1.75611 19.9737 2.39372L28.352 7.49383C29.3374 8.09365 30.1523 8.93852 30.7179 9.94687C31.2835 10.9552 31.5808 12.093 31.581 13.2504V23.8428C31.581 25.6285 30.8749 27.341 29.6179 28.6036C28.3609 29.8663 26.656 30.5756 24.8784 30.5756H21.527M11.473 30.5756V23.8428C11.473 22.5036 12.0026 21.2192 12.9454 20.2722C13.8881 19.3252 15.1668 18.7932 16.5 18.7932C17.8333 18.7932 19.1119 19.3252 20.0546 20.2722C20.9974 21.2192 21.527 22.5036 21.527 23.8428V30.5756M11.473 30.5756H21.527" stroke="#0394FE" stroke-width="2.82271" stroke-linecap="round" stroke-linejoin="round"/>
</svg>
